<svg version="1.2" xmlns="http://www.w3.org/2000/svg" viewBox="0 0 173 33" width="173" height="33">
	<title>logo-svg</title>
	<style>
		tspan { white-space:pre } 
		.t0 { font-size: 12px;fill: #ffffff;font-weight: 400;font-family: "Roboto-Regular", "Roboto" } 
		.s1 { fill: #ffffff } 
	</style>
	<text id="React" style="transform: matrix(1,0,0,1,125,9.333)" >
		<tspan x="0" y="0" class="t0">R</tspan><tspan  y="0" class="t0">e</tspan><tspan  y="0" class="t0">a</tspan><tspan  y="0" class="t0">c</tspan><tspan  y="0" class="t0">t
</tspan>
	</text>
	<path id="Layer" fill-rule="evenodd" class="s1" d="m0 32.6l9.4-26h4.6l9.4 26h-4.2l-2.4-6.9h-10.2l-2.4 6.9zm15.7-10.2l-3.9-11.1h-0.2l-3.9 11.1z"/>
	<path id="Layer" class="s1" d="m26.9 13.1h3.7v3.1h0.2c0.7-2.1 2.6-3.4 4.9-3.4 0.5 0 1.3 0.1 1.7 0.1v3.6c-0.3 0-1.2-0.2-2-0.2-2.7 0-4.7 1.9-4.7 4.4v11.9h-3.8z"/>
	<path id="Layer" fill-rule="evenodd" class="s1" d="m39.1 22.9c0-6 3.6-10 9.1-10 5.6 0 9.2 4 9.2 10 0 6.1-3.6 10.1-9.2 10.1-5.5 0-9.1-4-9.1-10.1zm14.4 0c0-3.7-1.7-6.9-5.3-6.9-3.6 0-5.3 3.2-5.3 6.9 0 3.8 1.7 6.9 5.3 6.9 3.6 0 5.3-3.1 5.3-6.9z"/>
	<path id="Layer" class="s1" d="m74.1 13.1h3.8v19.5h-3.7v-3.4h-0.3c-0.9 2.1-2.9 3.7-5.8 3.7-3.8 0-6.5-2.6-6.5-7.4v-12.4h3.9v12c0 2.6 1.6 4.3 4 4.3 2.1 0 4.6-1.6 4.6-4.9z"/>
	<path id="Layer" class="s1" d="m86.9 32.6h-3.9v-19.5h3.7v3.2h0.3c0.9-2.1 2.8-3.4 5.7-3.4 4 0 6.7 2.5 6.7 7.3v12.4h-3.8v-11.9c0-2.9-1.6-4.6-4.2-4.6-2.6 0-4.5 1.8-4.5 4.9z"/>
	<path id="Layer" fill-rule="evenodd" class="s1" d="m103.7 22.9c0-6.3 3.5-10 8.2-10 3.7 0 5 2.2 5.7 3.4h0.2v-9.7h3.8v26h-3.7v-3h-0.3c-0.7 1.2-2.1 3.4-5.7 3.4-4.8 0-8.2-3.8-8.2-10.1zm14.2 0c0-4.1-1.8-6.8-5.2-6.8-3.4 0-5.2 2.9-5.2 6.8 0 3.9 1.8 6.9 5.2 6.9 3.3 0 5.2-2.8 5.2-6.9z"/>
</svg>